<svg xmlns="http://www.w3.org/2000/svg" viewBox="0 0 128 128">
  <defs>
    <linearGradient id="grad1" x1="0%" y1="0%" x2="100%" y2="100%">
      <stop offset="0%" style="stop-color:#667eea;stop-opacity:1" />
      <stop offset="100%" style="stop-color:#764ba2;stop-opacity:1" />
    </linearGradient>
    <linearGradient id="grad2" x1="0%" y1="0%" x2="100%" y2="0%">
      <stop offset="0%" style="stop-color:#f093fb;stop-opacity:1" />
      <stop offset="100%" style="stop-color:#f5576c;stop-opacity:1" />
    </linearGradient>
  </defs>
  
  <!-- Background circle -->
  <circle cx="64" cy="64" r="60" fill="url(#grad1)"/>
  
  <!-- Document/Form icon -->
  <rect x="35" y="25" width="45" height="55" rx="4" fill="white" opacity="0.95"/>
  
  <!-- Form lines -->
  <rect x="42" y="35" width="25" height="4" rx="2" fill="#667eea"/>
  <rect x="42" y="45" width="31" height="4" rx="2" fill="#667eea"/>
  <rect x="42" y="55" width="20" height="4" rx="2" fill="#667eea"/>
  <rect x="42" y="65" width="28" height="4" rx="2" fill="#667eea"/>
  
  <!-- AI Brain sparkle -->
  <circle cx="85" cy="75" r="22" fill="url(#grad2)"/>
  
  <!-- Brain pattern -->
  <path d="M78 70 Q85 65 92 70 Q95 75 92 80 Q85 85 78 80 Q75 75 78 70" 
        fill="none" stroke="white" stroke-width="2.5" stroke-linecap="round"/>
  <circle cx="85" cy="75" r="3" fill="white"/>
  
  <!-- Sparkles -->
  <circle cx="95" cy="60" r="2" fill="white"/>
  <circle cx="100" cy="70" r="1.5" fill="white"/>
  <circle cx="75" cy="58" r="1.5" fill="white"/>
  
  <!-- Checkmark -->
  <path d="M50 72 L55 77 L65 67" fill="none" stroke="#10b981" stroke-width="3" stroke-linecap="round" stroke-linejoin="round"/>
</svg>
